# xmcd
#
# Track frame offsets:
#	150
#	24392
#	37972
#	53264
#	75591
#	91646
#	106050
#	122322
#
# Disc length: 2082 seconds
# Revision: 0
# Processed by: cddbd v1.5.2PL0 Copyright (c) Steve Scherf et al.
# Submitted via: dBpowerAMP V12.0
#
DISCID=41082008
DTITLE=Corky Siegel - Out of the Blue [Stuff Records] (L)
DYEAR=1981
DGENRE=Blues
TTITLE0=Just a Little Piece
TTITLE1=Goodbye California
TTITLE2=Since I Told You
TTITLE3=Southwest Coast Blues
TTITLE4=Midnight Radio
TTITLE5=On the Rebound
TTITLE6=Idiaho Potato Man
TTITLE7=Oh Emmy Lou
EXTD=
EXTT0=
EXTT1=
EXTT2=
EXTT3=
EXTT4=
EXTT5=
EXTT6=
EXTT7=
PLAYORDER=
